PathFileType	4	(X/Y/Z)	/Users/itak/Documents/Research/Walk-IL/dataset/trc/00179_00008.trc
DataRate	CameraRate	NumFrames	NumMarkers	Units	OrigDataRate	OrigDataStartFrame	OrigNumFrames
100.000000	100.000000	4	53	mm	100.000000	279	745
Frame#	Time	RPSI			LPSI			L3			STRN			T10			C7			CLAV			RBAK			LBAK			LSHO			LUPA			LAEL			LAOL			LWTS			LWPS			LFRA			LIFD			LHPS			LHTS			RSHO			RUPA			RAEL			RAOL			RWTS			RWPS			RFRA			RIFD			RHTS			RHPS			RBHD			LFHD			RFHD			LBHD			LHIP			RHIP			RASI			LASI			LKNE			LTHI			LANK			LTIP			LTOE			LMT1			LMT5			LHEE			RKNE			RTHI			RANK			RTIP			RTOE			RMT1			RMT5			RHEE			
		X1	Y1	Z1	X2	Y2	Z2	X3	Y3	Z3	X4	Y4	Z4	X5	Y5	Z5	X6	Y6	Z6	X7	Y7	Z7	X8	Y8	Z8	X9	Y9	Z9	X10	Y10	Z10	X11	Y11	Z11	X12	Y12	Z12	X13	Y13	Z13	X14	Y14	Z14	X15	Y15	Z15	X16	Y16	Z16	X17	Y17	Z17	X18	Y18	Z18	X19	Y19	Z19	X20	Y20	Z20	X21	Y21	Z21	X22	Y22	Z22	X23	Y23	Z23	X24	Y24	Z24	X25	Y25	Z25	X26	Y26	Z26	X27	Y27	Z27	X28	Y28	Z28	X29	Y29	Z29	X30	Y30	Z30	X31	Y31	Z31	X32	Y32	Z32	X33	Y33	Z33	X34	Y34	Z34	X35	Y35	Z35	X36	Y36	Z36	X37	Y37	Z37	X38	Y38	Z38	X39	Y39	Z39	X40	Y40	Z40	X41	Y41	Z41	X42	Y42	Z42	X43	Y43	Z43	X44	Y44	Z44	X45	Y45	Z45	X46	Y46	Z46	X47	Y47	Z47	X48	Y48	Z48	X49	Y49	Z49	X50	Y50	Z50	X51	Y51	Z51	X52	Y52	Z52	X53	Y53	Z53	

280	2.79	1001.678100585938	1040.920288085938	130.2127990722656	887.4990234375	1038.350708007812	176.3276519775391	945.5851440429688	1078.547241210938	154.1483917236328	833.0390014648438	1293.151733398438	-82.70441436767578	942.8703002929688	1237.79248046875	199.0822143554688	882.0855102539062	1503.926635742188	146.0771484375	823.0962524414062	1405.701171875	-49.34164428710938	1025.26611328125	1342.971923828125	165.0695495605469	793.3445434570312	1470.197143554688	188.8390197753906	696.8868408203125	1454.459716796875	142.7100219726562	644.1422119140625	1315.702026367188	183.2300109863281	621.6762084960938	1103.548461914062	140.048095703125	706.61865234375	1082.155151367188	154.593017578125	594.5961303710938	913.8336181640625	-35.99927139282227	590.8380126953125	866.5468139648438	44.55921936035156	600.2355346679688	996.086181640625	104.7083435058594	592.5384521484375	741.7962646484375	-113.374870300293	581.3823852539062	807.18701171875	2.968671560287476	566.0205078125	840.0867309570312	-60.63766860961914	1028.48828125	1506.703491210938	21.94847679138184	1105.880981445312	1450.388305664062	15.34562873840332	1202.390991210938	1172.406005859375	2.889747142791748	1116.81005859375	1157.360229492188	46.50693130493164	1132.3466796875	968.5511474609375	-157.7286529541016	1203.077392578125	941.7864990234375	-111.6175994873047	1212.4697265625	1102.661987304688	-38.0337028503418	1099.802001953125	785.6156005859375	-200.3283843994141	1128.090698242188	881.7157592773438	-202.6883239746094	1187.393432617188	865.60546875	-152.2094116210938	888.863037109375	1679.731079101562	14.26846599578857	673.7448120117188	1661.491577148438	-19.69230842590332	764.5105590820312	1681.212280273438	-108.8328247070312	796.6015625	1667.279541015625	115.5044403076172	743.8759155273438	969.1356201171875	117.5468444824219	1062.919067382812	1011.55517578125	-61.62225341796875	981.1304931640625	1041.654296875	-113.3035736083984	744.1585693359375	1015.439086914062	-16.58955955505371	825.8649291992188	481.6107788085938	-24.8966236114502	778.7066040039062	616.481689453125	13.54917907714844	944.6328125	33.58152389526367	-8.425101280212402	872.3856811523438	252.6654510498047	-16.37127304077148	850.0304565429688	43.48659133911133	-205.4172058105469	916.0770874023438	39.55730056762695	-190.17919921875	854.0474243164062	34.98402786254883	-80.45594024658203	1030.731811523438	36.98550033569336	-2.689967632293701	1047.094360351562	535.3114013671875	-227.2805938720703	1053.082153320312	806.7631225585938	-173.5155639648438	1176.642822265625	134.7870178222656	51.20101547241211	1063.02294921875	414.4024353027344	-196.156005859375	1163.497802734375	58.87496948242188	-153.4152526855469	1111.269897460938	66.65615081787109	-106.3647384643555	1218.708862304688	88.69481658935547	-46.29007720947266	1106.054565429688	142.0902709960938	96.04916381835938	
281	2.8	999.642333984375	1040.834594726562	121.0721893310547	886.5028686523438	1038.234741210938	169.8571319580078	943.793212890625	1078.547973632812	146.374755859375	826.5902099609375	1292.718994140625	-88.80959320068359	941.1808471679688	1238.075317382812	191.2718353271484	879.5355834960938	1504.029296875	138.5375061035156	817.4313354492188	1405.439208984375	-55.78713607788086	1022.841369628906	1343.013549804688	155.5464477539062	791.2228393554688	1470.632568359375	182.7347717285156	694.27783203125	1455.158325195312	138.2769775390625	641.2780151367188	1316.354858398438	178.5290679931641	616.2255859375	1104.677368164062	132.7107086181641	700.986328125	1082.019775390625	146.3668975830078	585.9254150390625	919.9144287109375	-47.87788772583008	582.5668334960938	870.369873046875	31.3090991973877	593.40576171875	998.3661499023438	95.09359741210938	581.8121948242188	750.3387451171875	-130.2910003662109	572.294189453125	812.2632446289062	-11.88478374481201	556.4503784179688	847.1644897460938	-74.34445190429688	1023.932434082031	1506.3427734375	12.10163497924805	1101.22998046875	1450.13671875	4.360122203826904	1198.447875976562	1172.42724609375	-9.000140190124512	1114.468017578125	1158.384765625	38.01155471801758	1126.033569335938	969.2138671875	-169.2472076416016	1197.022094726562	941.841064453125	-123.9015884399414	1207.940185546875	1102.672607421875	-50.15808486938477	1092.002197265625	786.7390747070312	-212.4309997558594	1120.980102539062	882.7033081054688	-214.5856628417969	1180.53955078125	865.9140625	-164.6412658691406	884.6754760742188	1679.440063476562	6.426571369171143	669.0182495117188	1661.522705078125	-24.79645347595215	758.718017578125	1680.932495117188	-115.0835876464844	793.6886596679688	1667.334594726562	108.911247253418	741.811279296875	968.2926635742188	114.325065612793	1056.354248046875	1011.702392578125	-72.4110107421875	973.1912841796875	1041.403564453125	-121.9293746948242	738.371826171875	1014.930969238281	-19.82649803161621	824.3187866210938	481.0397644042969	-25.2087516784668	776.7539672851562	615.9769897460938	12.5328254699707	944.6997680664062	33.54246139526367	-8.351006507873535	872.1010131835938	252.4510803222656	-16.20393943786621	849.7452392578125	43.27887725830078	-205.2188415527344	915.7699584960938	39.32969665527344	-189.9986877441406	853.89892578125	34.72743988037109	-80.22779083251953	1030.976684570312	37.0916862487793	-2.546586275100708	1032.482055664062	537.259765625	-242.1033020019531	1042.387939453125	807.786865234375	-185.7976684570312	1166.622802734375	124.4726791381836	15.9727783203125	1048.166625976562	415.0629272460938	-215.0171051025391	1145.326416015625	58.9887580871582	-191.5365905761719	1094.874389648438	64.67251586914062	-142.2165069580078	1204.706298828125	82.98897552490234	-85.09664916992188	1097.806030273438	130.5523376464844	63.74139785766602	
282	2.81	997.5411376953125	1040.650390625	111.9178009033203	885.5090942382812	1038.021118164062	163.3299713134766	942.0039672851562	1078.420288085938	138.5987548828125	820.0948486328125	1292.172241210938	-94.81411743164062	939.49462890625	1238.2880859375	183.4549102783203	876.8919677734375	1504.003295898438	131.0295867919922	811.6904907226562	1405.074829101562	-62.15159225463867	1020.37890625	1342.986572265625	146.003173828125	789.0807495117188	1470.986083984375	176.6357269287109	691.6466674804688	1455.741455078125	133.8972473144531	638.378662109375	1316.924682617188	173.8662567138672	610.7831420898438	1105.751220703125	125.5589752197266	695.3259887695312	1081.804565429688	138.3641815185547	577.419189453125	925.9548950195312	-59.30919647216797	574.4097900390625	874.2144165039062	18.46454811096191	586.6249389648438	1000.640625	85.66738128662109	571.3021240234375	758.9397583007812	-146.5877075195312	563.3493041992188	817.4029541015625	-26.25297546386719	547.0681762695312	854.2219848632812	-87.54773712158203	1019.254333496094	1505.894409179688	2.251303672790527	1096.449462890625	1449.799194335938	-6.664302825927734	1194.35888671875	1172.379272460938	-21.00673866271973	1112.031127929688	1159.290283203125	29.45257377624512	1119.685791015625	969.591064453125	-180.6362915039062	1191.06494140625	941.8088989257812	-136.1652221679688	1203.302490234375	1102.62548828125	-62.37031173706055	1084.476806640625	787.4702758789062	-224.1183471679688	1113.89404296875	883.3391723632812	-226.2272644042969	1173.874633789062	866.0787353515625	-176.9431915283203	880.4103393554688	1679.042358398438	-1.408789396286011	664.240478515625	1661.455444335938	-29.85795783996582	752.860595703125	1680.555786132812	-121.297477722168	790.7127685546875	1667.283325195312	102.3251037597656	739.7601318359375	967.4496459960938	111.0339965820312	1049.689086914062	1011.750122070312	-83.09843444824219	965.2542114257812	1041.12841796875	-130.4781188964844	732.6664428710938	1014.400573730469	-23.05434608459473	822.8241577148438	480.4800109863281	-25.63844680786133	774.782470703125	615.5123901367188	11.34066677093506	944.7584838867188	33.49776840209961	-8.272190093994141	871.7266235351562	252.2786560058594	-16.11513137817383	849.4137573242188	42.98799133300781	-205.0071716308594	915.5078125	39.03952407836914	-189.7972564697266	853.7330932617188	34.44591522216797	-79.96688842773438	1031.1611328125	37.20041656494141	-2.449718952178955	1017.703369140625	538.9739990234375	-256.0427856445312	1031.4794921875	808.6314086914062	-197.6548919677734	1155.273803710938	114.3847427368164	-19.56089019775391	1032.864501953125	415.6653747558594	-233.1487121582031	1125.250366210938	59.39653015136719	-229.0154113769531	1076.808959960938	63.06237030029297	-177.4777069091797	1188.979370117188	77.54907989501953	-123.8660278320312	1088.467407226562	119.2816619873047	31.13895416259766	
283	2.82	995.3350830078125	1040.35888671875	102.7458953857422	884.4871826171875	1037.710693359375	156.7283935546875	940.2042846679688	1078.169067382812	130.812255859375	813.5606079101562	1291.5283203125	-100.7230682373047	937.8095092773438	1238.425903320312	175.6227722167969	874.148193359375	1503.851318359375	123.5568695068359	805.8790893554688	1404.622680664062	-68.43659210205078	1017.881591796875	1342.897583007812	136.4457550048828	786.911376953125	1471.250732421875	170.5402679443359	688.9879760742188	1456.18408203125	129.5432891845703	635.441162109375	1317.418579101562	169.2267761230469	605.3563842773438	1106.755004882812	118.5781936645508	689.6536254882812	1081.5517578125	130.6107482910156	569.1180419921875	931.9190063476562	-70.29091644287109	566.36767578125	878.0651245117188	6.049172401428223	579.9110107421875	1002.908264160156	76.41543579101562	561.0057373046875	767.55078125	-162.2271423339844	554.5263061523438	822.5848999023438	-40.11264038085938	537.8987426757812	861.2337036132812	-100.2359390258789	1014.445861816406	1505.373168945312	-7.585299491882324	1091.528686523438	1449.39013671875	-17.7076301574707	1190.097290039062	1172.278198242188	-33.12012100219727	1109.368286132812	1159.975830078125	20.60704803466797	1113.30126953125	969.6825561523438	-191.8908843994141	1185.19775390625	941.6981811523438	-148.3880767822266	1198.532348632812	1102.5341796875	-74.65731811523438	1077.253784179688	787.7951049804688	-235.3826904296875	1106.84375	883.6159057617188	-237.6083679199219	1167.406127929688	866.1012573242188	-189.1012573242188	876.0595703125	1678.540283203125	-9.2427978515625	659.4259033203125	1661.288330078125	-34.88836669921875	746.9434204101562	1680.070922851562	-127.4856948852539	787.6577758789062	1667.143676757812	95.73795318603516	737.70849609375	966.6544189453125	107.6573944091797	1042.93115234375	1011.70947265625	-93.6705322265625	957.3302001953125	1040.844848632812	-138.9407196044922	727.0541381835938	1013.863342285156	-26.29815101623535	821.3424682617188	479.9362182617188	-26.20233345031738	772.7898559570312	615.0807495117188	9.961820602416992	944.8070068359375	33.44816589355469	-8.190435409545898	871.271484375	252.144775390625	-16.10004425048828	849.0521240234375	42.64186477661133	-204.7970581054688	915.3463134765625	38.70601272583008	-189.5770568847656	853.5477905273438	34.14784240722656	-79.672119140625	1031.262817382812	37.29423904418945	-2.444406509399414	1002.837280273438	540.4415283203125	-269.1158142089844	1020.410827636719	809.3162231445312	-209.0923614501953	1142.523315429688	104.6469955444336	-55.26187133789062	1017.183715820312	416.2430419921875	-250.5569000244141	1103.214111328125	60.13162994384766	-265.6517944335938	1057.03857421875	61.9047966003418	-211.9553985595703	1171.444702148438	72.44898986816406	-162.4283447265625	1077.96728515625	108.3759155273438	-1.623594880104065	
